<svg xmlns="http://www.w3.org/2000/svg" viewBox="0 0 997.43 983.19">
	<defs>
		<style>
			.cls-1 {
				fill: white;
			}
		</style>
	</defs>
	<g>
		<g id="Icons">
			<circle class="cls-1" cx="498.65" cy="506.01" r="239.04" />
			<path class="cls-1" d="M976,448.51l-153.78,27a25.9,25.9,0,1,1-9-51l153.78-27a25.9,25.9,0,1,1,9,51Z" />
			<path class="cls-1"
				d="M827.37,155.12,726.92,274.65a25.9,25.9,0,0,1-39.65-33.32L787.72,121.8a25.9,25.9,0,0,1,39.65,33.32Z" />
			<path class="cls-1"
				d="M524.92,25.92l-.12,156.13A25.9,25.9,0,0,1,473,182l.12-156.13a25.9,25.9,0,1,1,51.79,0Z" />
			<path class="cls-1"
				d="M210.18,121.35,310.45,241a25.9,25.9,0,0,1-39.71,33.26L170.48,154.61a25.9,25.9,0,0,1,39.7-33.26Z" />
			<path class="cls-1" d="M30.42,396.77,184.16,424a25.9,25.9,0,0,1-9,51L21.38,447.77a25.9,25.9,0,0,1,9-51Z" />
			<path class="cls-1"
				d="M69.75,723.3l135.27-78a25.89,25.89,0,1,1,25.86,44.87l-135.27,78A25.89,25.89,0,1,1,69.75,723.3Z" />
			<path class="cls-1"
				d="M309.77,948.16l53.51-146.68a25.9,25.9,0,0,1,48.66,17.75L358.42,965.91a25.89,25.89,0,0,1-48.65-17.75Z" />
			<path class="cls-1"
				d="M638.17,966.13,584.88,819.37a25.9,25.9,0,0,1,48.68-17.68l53.29,146.76a25.9,25.9,0,1,1-48.68,17.68Z" />
			<path class="cls-1"
				d="M901.29,768.8,766.13,690.63a25.89,25.89,0,1,1,25.93-44.83L927.22,724a25.89,25.89,0,0,1-25.93,44.83Z" />
		</g>
	</g>
</svg>